<?xml version="1.0" encoding="UTF-8" standalone="no"?>
<svg
   xmlns:dc="http://purl.org/dc/elements/1.1/"
   xmlns:cc="http://creativecommons.org/ns#"
   xmlns:rdf="http://www.w3.org/1999/02/22-rdf-syntax-ns#"
   xmlns:svg="http://www.w3.org/2000/svg"
   xmlns="http://www.w3.org/2000/svg"
   viewBox="0 0 881.33331 557.33331"
   height="557.33331"
   width="881.33331"
   xml:space="preserve"
   id="svg2"
   version="1.1"><metadata
     id="metadata8"><rdf:RDF><cc:Work
         rdf:about=""><dc:format>image/svg+xml</dc:format><dc:type
           rdf:resource="http://purl.org/dc/dcmitype/StillImage" /></cc:Work></rdf:RDF></metadata><defs
     id="defs6" /><g
     transform="matrix(1.3333333,0,0,-1.3333333,0,557.33333)"
     id="g10"><g
       transform="scale(0.1)"
       id="g12"><path
         id="path14"
         style="fill:#ffffff;fill-opacity:1;fill-rule:nonzero;stroke:none"
         d="m 110,3080 h 6390 v 990 H 110 Z" /><path
         id="path16"
         style="fill:none;stroke:#000000;stroke-width:10;stroke-linecap:round;stroke-linejoin:round;stroke-miterlimit:10;stroke-dasharray:10, 40;stroke-dashoffset:0;stroke-opacity:1"
         d="m 115,3075 h 6390 v 990 H 115 Z" /><g
         transform="scale(10)"
         id="g18"><text
           id="text22"
           style="font-variant:normal;font-weight:bold;font-size:11px;font-family:Helvetica;-inkscape-font-specification:Helvetica-Bold;writing-mode:lr-tb;fill:#000000;fill-opacity:1;fill-rule:nonzero;stroke:none"
           transform="matrix(1,0,0,-1,595.473,392)"><tspan
             id="tspan20"
             y="0"
             x="0 7.3369999 13.45466 17.735418 24.45466 30.572321 33.628464 39.746124 45.863785">Pyroclast</tspan></text>
</g><path
         id="path24"
         style="fill:#ffffff;fill-opacity:1;fill-rule:nonzero;stroke:none"
         d="m 110,110 h 6390 v 990 H 110 Z" /><path
         id="path26"
         style="fill:none;stroke:#000000;stroke-width:10;stroke-linecap:round;stroke-linejoin:round;stroke-miterlimit:10;stroke-dasharray:10, 40;stroke-dashoffset:0;stroke-opacity:1"
         d="m 115,105 h 6390 v 990 H 115 Z" /><g
         transform="scale(10)"
         id="g28"><text
           id="text32"
           style="font-variant:normal;font-weight:bold;font-size:11px;font-family:Helvetica;-inkscape-font-specification:Helvetica-Bold;writing-mode:lr-tb;fill:#000000;fill-opacity:1;fill-rule:nonzero;stroke:none"
           transform="matrix(1,0,0,-1,580.193,95)"><tspan
             id="tspan30"
             y="0"
             x="0 6.11766 12.836903 19.556145 23.836903 26.893047 33.010708 39.128368 45.246029 48.909027 55.026688">your system</tspan></text>
</g><path
         id="path34"
         style="fill:#c9fdca;fill-opacity:1;fill-rule:nonzero;stroke:none"
         d="m 2781.88,3980 h 804.37 c 61.88,0 61.88,0 61.88,-39.37 v 19.68 c 30.93,0 30.93,0 30.93,-39.37 v 19.69 c 30.94,0 30.94,0 30.94,-39.38 v -511.87 c 0,-39.38 0,-39.38 -61.87,-39.38 h -804.38 c -61.87,0 -61.87,0 -61.87,19.69 -30.94,0 -30.94,0 -30.94,19.69 -30.94,0 -30.94,0 -30.94,39.37 v 511.88 c 0,39.37 0,39.37 61.88,39.37 z" /><path
         id="path36"
         style="fill:none;stroke:#000000;stroke-width:10;stroke-linecap:round;stroke-linejoin:round;stroke-miterlimit:10;stroke-dasharray:none;stroke-opacity:1"
         d="m 2781.88,3975 h 804.37 c 61.88,5 61.88,5 68.75,-34.37 v -511.88 c -6.87,-39.37 -6.87,-39.37 -68.75,-43.75 h -804.37 c -61.88,4.38 -61.88,4.38 -56.88,43.75 v 511.88 c -5,39.37 -5,39.37 56.88,39.37 m 866.25,-19.69 c 30.93,0 30.93,0 36.87,-39.37 v -531.56 c -5.94,-19.69 -5.94,-19.69 -67.81,-24.38 h -804.38 c -61.87,4.69 -61.87,4.69 -61.87,24.38 m 928.12,551.25 c 30.94,0 30.94,0 35.94,-39.38 V 3389.38 C 3710,3350 3710,3350 3648.13,3345 h -804.38 c -61.87,5 -61.87,5 -61.87,24.69" /><g
         transform="scale(10)"
         id="g38"><text
           id="text44"
           style="font-variant:normal;font-weight:normal;font-size:12px;font-family:Helvetica;-inkscape-font-specification:Helvetica;writing-mode:lr-tb;fill:#000000;fill-opacity:1;fill-rule:nonzero;stroke:none"
           transform="matrix(1,0,0,-1,297.966,372.807)"><tspan
             id="tspan40"
             y="0"
             x="0 6 9.3339739 13.329973 20.003805 26.677635 36.673637">stream </tspan><tspan
             id="tspan42"
             y="14"
             x="-8.0070295 -1.3331989 2.662801 9.3366318 15.336632 22.010464 28.010464 34.010464 40.684296">processor</tspan></text>
</g><path
         id="path46"
         style="fill:#ffd3c0;fill-opacity:1;fill-rule:nonzero;stroke:none"
         d="m 380,3530 h 1350 v 270 H 380 Z" /><path
         id="path48"
         style="fill:none;stroke:#000000;stroke-width:10;stroke-linecap:round;stroke-linejoin:round;stroke-miterlimit:10;stroke-dasharray:none;stroke-opacity:1"
         d="m 385,3525 h 1350 v 270 H 385 Z" /><g
         transform="scale(10)"
         id="g50"><text
           id="text54"
           style="font-variant:normal;font-weight:normal;font-size:12px;font-family:Helvetica;-inkscape-font-specification:Helvetica;writing-mode:lr-tb;fill:#000000;fill-opacity:1;fill-rule:nonzero;stroke:none"
           transform="matrix(1,0,0,-1,92.8262,362.5)"><tspan
             id="tspan52"
             y="0"
             x="0 3.3339858 10.007817 16.681648 19.347662">topic</tspan></text>
</g><path
         id="path56"
         style="fill:#fff4ca;fill-opacity:1;fill-rule:nonzero;stroke:none"
         d="m 2918,2810 h 504 c 59.62,0 108,-120.96 108,-270 0,-149.04 -48.38,-270 -108,-270 h -504 c -59.62,0 -108,120.96 -108,270 0,149.04 48.38,270 108,270" /><path
         id="path58"
         style="fill:none;stroke:#000000;stroke-width:10;stroke-linecap:round;stroke-linejoin:round;stroke-miterlimit:10;stroke-dasharray:none;stroke-opacity:1"
         d="m 2918,2805 h 504 c 59.62,5 108,-115.96 108,-265 0,-149.04 -48.38,-270 -108,-275 h -504 c -59.62,5 -108,125.96 -108,275 0,149.04 48.38,270 108,270" /><g
         transform="scale(10)"
         id="g60"><text
           id="text64"
           style="font-variant:normal;font-weight:normal;font-size:12px;font-family:Helvetica;-inkscape-font-specification:Helvetica;writing-mode:lr-tb;fill:#000000;fill-opacity:1;fill-rule:nonzero;stroke:none"
           transform="matrix(1,0,0,-1,297.995,250)"><tspan
             id="tspan62"
             y="0"
             x="0 6 12.673831 16.66983 22.66983 25.335857 31.335857">service</tspan></text>
</g><path
         id="path66"
         style="fill:#ffced3;fill-opacity:1;fill-rule:nonzero;stroke:none"
         d="m 4877.74,3824.1 c 123.01,-87.87 123.01,-230.33 0,-318.2 -123.02,-87.87 -322.46,-87.87 -445.48,0 -123.01,87.87 -123.01,230.33 0,318.2 123.02,87.87 322.46,87.87 445.48,0" /><path
         id="path68"
         style="fill:none;stroke:#000000;stroke-width:10;stroke-linecap:round;stroke-linejoin:round;stroke-miterlimit:10;stroke-dasharray:none;stroke-opacity:1"
         d="m 4877.74,3824.1 c 123.01,-87.87 123.01,-230.33 0,-318.2 -123.02,-87.87 -322.46,-87.87 -445.48,0 -123.01,87.87 -123.01,230.33 0,318.2 123.02,87.87 322.46,87.87 445.48,0" /><g
         transform="scale(10)"
         id="g70"><text
           id="text76"
           style="font-variant:normal;font-weight:normal;font-size:12px;font-family:Helvetica;-inkscape-font-specification:Helvetica;writing-mode:lr-tb;fill:#000000;fill-opacity:1;fill-rule:nonzero;stroke:none"
           transform="matrix(1,0,0,-1,452.492,369.5)"><tspan
             id="tspan72"
             y="0"
             x="0 6 9.3339977 16.007805 19.341803 26.01561">state </tspan><tspan
             id="tspan74"
             y="14"
             x="-0.33085901 5.6691408 9.0031395 15.676946 19.672945">store</tspan></text>
</g><path
         id="path78"
         style="fill:none;stroke:#000000;stroke-width:10;stroke-linecap:round;stroke-linejoin:round;stroke-miterlimit:10;stroke-dasharray:none;stroke-opacity:1"
         d="M 2720,3665 H 1829" /><path
         id="path80"
         style="fill:#000000;fill-opacity:1;fill-rule:nonzero;stroke:none"
         d="m 1749,3665 80,-30 v 60 z" /><path
         id="path82"
         style="fill:none;stroke:#000000;stroke-width:10;stroke-linecap:butt;stroke-linejoin:miter;stroke-miterlimit:10;stroke-dasharray:none;stroke-opacity:1"
         d="m 1749,3665 80,-30 v 60 z" /><path
         id="path84"
         style="fill:none;stroke:#000000;stroke-width:10;stroke-linecap:round;stroke-linejoin:round;stroke-miterlimit:10;stroke-dasharray:none;stroke-opacity:1"
         d="M 3648.13,3665 H 4241" /><path
         id="path86"
         style="fill:#000000;fill-opacity:1;fill-rule:nonzero;stroke:none"
         d="m 4321,3665 -80,30 v -60 z" /><path
         id="path88"
         style="fill:none;stroke:#000000;stroke-width:10;stroke-linecap:butt;stroke-linejoin:miter;stroke-miterlimit:10;stroke-dasharray:none;stroke-opacity:1"
         d="m 4321,3665 -80,30 v -60 z" /><path
         id="path90"
         style="fill:none;stroke:#000000;stroke-width:10;stroke-linecap:round;stroke-linejoin:round;stroke-miterlimit:10;stroke-dasharray:none;stroke-opacity:1"
         d="m 3476.91,2772.51 883.08,669" /><path
         id="path92"
         style="fill:#000000;fill-opacity:1;fill-rule:nonzero;stroke:none"
         d="m 4423.76,3489.82 -81.88,-24.4 36.23,-47.82 z" /><path
         id="path94"
         style="fill:none;stroke:#000000;stroke-width:10;stroke-linecap:butt;stroke-linejoin:miter;stroke-miterlimit:10;stroke-dasharray:none;stroke-opacity:1"
         d="m 4423.76,3489.82 -81.88,-24.4 36.23,-47.82 z" /><path
         id="path96"
         style="fill:#d7e8ff;fill-opacity:1;fill-rule:nonzero;stroke:none"
         d="m 1730,380 h 900 v 540 h -900 z" /><path
         id="path98"
         style="fill:none;stroke:#000000;stroke-width:10;stroke-linecap:round;stroke-linejoin:round;stroke-miterlimit:10;stroke-dasharray:none;stroke-opacity:1"
         d="m 1735,375 h 900 v 540 h -900 z" /><g
         transform="scale(10)"
         id="g100"><text
           id="text104"
           style="font-variant:normal;font-weight:normal;font-size:12px;font-family:Helvetica;-inkscape-font-specification:Helvetica;writing-mode:lr-tb;fill:#000000;fill-opacity:1;fill-rule:nonzero;stroke:none"
           transform="matrix(1,0,0,-1,189.313,61)"><tspan
             id="tspan102"
             y="0"
             x="0 6.673831 13.347662 20.021494 22.687519 25.353546 31.353546 38.027378 41.361351 44.027378 50.701206">application</tspan></text>
</g><path
         id="path106"
         style="fill:#d7e8ff;fill-opacity:1;fill-rule:nonzero;stroke:none"
         d="m 2720,380 h 900 v 540 h -900 z" /><path
         id="path108"
         style="fill:none;stroke:#000000;stroke-width:10;stroke-linecap:round;stroke-linejoin:round;stroke-miterlimit:10;stroke-dasharray:none;stroke-opacity:1"
         d="m 2725,375 h 900 v 540 h -900 z" /><g
         transform="scale(10)"
         id="g110"><text
           id="text114"
           style="font-variant:normal;font-weight:normal;font-size:12px;font-family:Helvetica;-inkscape-font-specification:Helvetica;writing-mode:lr-tb;fill:#000000;fill-opacity:1;fill-rule:nonzero;stroke:none"
           transform="matrix(1,0,0,-1,288.313,61)"><tspan
             id="tspan112"
             y="0"
             x="0 6.673831 13.347662 20.021494 22.687519 25.353546 31.353546 38.027378 41.361351 44.027378 50.701206">application</tspan></text>
</g><path
         id="path116"
         style="fill:#d7e8ff;fill-opacity:1;fill-rule:nonzero;stroke:none"
         d="m 740,380 h 900 V 920 H 740 Z" /><path
         id="path118"
         style="fill:none;stroke:#000000;stroke-width:10;stroke-linecap:round;stroke-linejoin:round;stroke-miterlimit:10;stroke-dasharray:none;stroke-opacity:1"
         d="m 745,375 h 900 V 915 H 745 Z" /><g
         transform="scale(10)"
         id="g120"><text
           id="text124"
           style="font-variant:normal;font-weight:normal;font-size:12px;font-family:Helvetica;-inkscape-font-specification:Helvetica;writing-mode:lr-tb;fill:#000000;fill-opacity:1;fill-rule:nonzero;stroke:none"
           transform="matrix(1,0,0,-1,90.3125,61)"><tspan
             id="tspan122"
             y="0"
             x="0 6.673831 13.347662 20.021494 22.687508 25.353521 31.353521 38.027351 41.36134 44.027351 50.701183">application</tspan></text>
</g><path
         id="path126"
         style="fill:#d7e8ff;fill-opacity:1;fill-rule:nonzero;stroke:none"
         d="m 3710,380 h 900 v 540 h -900 z" /><path
         id="path128"
         style="fill:none;stroke:#000000;stroke-width:10;stroke-linecap:round;stroke-linejoin:round;stroke-miterlimit:10;stroke-dasharray:none;stroke-opacity:1"
         d="m 3715,375 h 900 v 540 h -900 z" /><g
         transform="scale(10)"
         id="g130"><text
           id="text134"
           style="font-variant:normal;font-weight:normal;font-size:12px;font-family:Helvetica;-inkscape-font-specification:Helvetica;writing-mode:lr-tb;fill:#000000;fill-opacity:1;fill-rule:nonzero;stroke:none"
           transform="matrix(1,0,0,-1,387.313,61)"><tspan
             id="tspan132"
             y="0"
             x="0 6.673831 13.347662 20.021494 22.687494 25.353497 31.353497 38.027306 41.361301 44.027306 50.701111">application</tspan></text>
</g><path
         id="path136"
         style="fill:#d7e8ff;fill-opacity:1;fill-rule:nonzero;stroke:none"
         d="m 4700,380 h 900 v 540 h -900 z" /><path
         id="path138"
         style="fill:none;stroke:#000000;stroke-width:10;stroke-linecap:round;stroke-linejoin:round;stroke-miterlimit:10;stroke-dasharray:none;stroke-opacity:1"
         d="m 4705,375 h 900 v 540 h -900 z" /><g
         transform="scale(10)"
         id="g140"><text
           id="text144"
           style="font-variant:normal;font-weight:normal;font-size:12px;font-family:Helvetica;-inkscape-font-specification:Helvetica;writing-mode:lr-tb;fill:#000000;fill-opacity:1;fill-rule:nonzero;stroke:none"
           transform="matrix(1,0,0,-1,486.313,61)"><tspan
             id="tspan142"
             y="0"
             x="0 6.6738067 13.347613 20.02142 22.687422 25.353424 31.353424 38.027229 41.361229 44.027229 50.701038">application</tspan></text>
</g><path
         id="path146"
         style="fill:none;stroke:#000000;stroke-width:10;stroke-linecap:round;stroke-linejoin:round;stroke-miterlimit:10;stroke-dasharray:none;stroke-opacity:1"
         d="M 1177.91,920 1065.47,3431.1" /><path
         id="path148"
         style="fill:#000000;fill-opacity:1;fill-rule:nonzero;stroke:none"
         d="m 1061.89,3511.02 -26.39,-81.26 59.94,2.68 z" /><path
         id="path150"
         style="fill:none;stroke:#000000;stroke-width:10;stroke-linecap:butt;stroke-linejoin:miter;stroke-miterlimit:10;stroke-dasharray:none;stroke-opacity:1"
         d="m 1061.89,3511.02 -26.39,-81.26 59.94,2.68 z" /><path
         id="path152"
         style="fill:none;stroke:#000000;stroke-width:10;stroke-linecap:round;stroke-linejoin:round;stroke-miterlimit:10;stroke-dasharray:none;stroke-opacity:1"
         d="m 2321.43,920 661.21,1262.3" /><path
         id="path154"
         style="fill:#000000;fill-opacity:1;fill-rule:nonzero;stroke:none"
         d="m 3019.75,2253.17 -63.69,-56.95 53.15,-27.84 z" /><path
         id="path156"
         style="fill:none;stroke:#000000;stroke-width:10;stroke-linecap:butt;stroke-linejoin:miter;stroke-miterlimit:10;stroke-dasharray:none;stroke-opacity:1"
         d="m 3019.75,2253.17 -63.69,-56.95 53.15,-27.84 z" /><path
         id="path158"
         style="fill:none;stroke:#000000;stroke-width:10;stroke-linecap:round;stroke-linejoin:round;stroke-miterlimit:10;stroke-dasharray:none;stroke-opacity:1"
         d="M 1472.86,920 2822.49,2208.29" /><path
         id="path160"
         style="fill:#000000;fill-opacity:1;fill-rule:nonzero;stroke:none"
         d="m 2880.36,2263.52 -78.59,-33.54 41.43,-43.39 z" /><path
         id="path162"
         style="fill:none;stroke:#000000;stroke-width:10;stroke-linecap:butt;stroke-linejoin:miter;stroke-miterlimit:10;stroke-dasharray:none;stroke-opacity:1"
         d="m 2880.36,2263.52 -78.59,-33.54 41.43,-43.39 z" /><path
         id="path164"
         style="fill:none;stroke:#000000;stroke-width:10;stroke-linecap:round;stroke-linejoin:round;stroke-miterlimit:10;stroke-dasharray:none;stroke-opacity:1"
         d="m 4018.57,920 -661.2,1262.3" /><path
         id="path166"
         style="fill:#000000;fill-opacity:1;fill-rule:nonzero;stroke:none"
         d="m 3320.25,2253.17 10.54,-84.79 53.15,27.84 z" /><path
         id="path168"
         style="fill:none;stroke:#000000;stroke-width:10;stroke-linecap:butt;stroke-linejoin:miter;stroke-miterlimit:10;stroke-dasharray:none;stroke-opacity:1"
         d="m 3320.25,2253.17 10.54,-84.79 53.15,27.84 z" /><path
         id="path170"
         style="fill:none;stroke:#000000;stroke-width:10;stroke-linecap:round;stroke-linejoin:round;stroke-miterlimit:10;stroke-dasharray:none;stroke-opacity:1"
         d="M 4867.14,920 3517.51,2208.29" /><path
         id="path172"
         style="fill:#000000;fill-opacity:1;fill-rule:nonzero;stroke:none"
         d="m 3459.64,2263.52 37.16,-76.93 41.43,43.39 z" /><path
         id="path174"
         style="fill:none;stroke:#000000;stroke-width:10;stroke-linecap:butt;stroke-linejoin:miter;stroke-miterlimit:10;stroke-dasharray:none;stroke-opacity:1"
         d="m 3459.64,2263.52 37.16,-76.93 41.43,43.39 z" /><path
         id="path176"
         style="fill:none;stroke:#000000;stroke-width:10;stroke-linecap:round;stroke-linejoin:round;stroke-miterlimit:10;stroke-dasharray:none;stroke-opacity:1"
         d="M 3175,920 V 2171" /><path
         id="path178"
         style="fill:#000000;fill-opacity:1;fill-rule:nonzero;stroke:none"
         d="m 3170,2251 -30,-80 h 60 z" /><path
         id="path180"
         style="fill:none;stroke:#000000;stroke-width:10;stroke-linecap:butt;stroke-linejoin:miter;stroke-miterlimit:10;stroke-dasharray:none;stroke-opacity:1"
         d="m 3170,2251 -30,-80 h 60 z" /><path
         id="path182"
         style="fill:none;stroke:#000000;stroke-width:10;stroke-linecap:round;stroke-linejoin:round;stroke-miterlimit:10;stroke-dasharray:none;stroke-opacity:1"
         d="M 2980.6,920 1206.55,3448.95" /><path
         id="path184"
         style="fill:#000000;fill-opacity:1;fill-rule:nonzero;stroke:none"
         d="m 1160.61,3514.45 21.39,-82.72 49.11,34.45 z" /><path
         id="path186"
         style="fill:none;stroke:#000000;stroke-width:10;stroke-linecap:butt;stroke-linejoin:miter;stroke-miterlimit:10;stroke-dasharray:none;stroke-opacity:1"
         d="m 1160.61,3514.45 21.39,-82.72 49.11,34.45 z" /></g></g></svg>